PathFileType	4	(X/Y/Z)	/Users/itak/Documents/Research/Walk-IL/dataset/trc/00575_00009.trc
DataRate	CameraRate	NumFrames	NumMarkers	Units	OrigDataRate	OrigDataStartFrame	OrigNumFrames
100.000000	100.000000	4	53	mm	100.000000	455	521
Frame#	Time	RPSI			LPSI			L3			STRN			T10			C7			CLAV			RBAK			LBAK			LSHO			LUPA			LAEL			LAOL			LWTS			LWPS			LFRA			LIFD			LHPS			LHTS			RSHO			RUPA			RAEL			RAOL			RWTS			RWPS			RFRA			RIFD			RHTS			RHPS			RBHD			RFHD			LBHD			LHIP			RHIP			RASI			LASI			LKNE			LTHI			LANK			LTIP			LTOE			LMT1			LMT5			LHEE			RKNE			RTHI			RANK			RTIP			RTOE			RMT1			RMT5			RHEE			LFHD			
		X1	Y1	Z1	X2	Y2	Z2	X3	Y3	Z3	X4	Y4	Z4	X5	Y5	Z5	X6	Y6	Z6	X7	Y7	Z7	X8	Y8	Z8	X9	Y9	Z9	X10	Y10	Z10	X11	Y11	Z11	X12	Y12	Z12	X13	Y13	Z13	X14	Y14	Z14	X15	Y15	Z15	X16	Y16	Z16	X17	Y17	Z17	X18	Y18	Z18	X19	Y19	Z19	X20	Y20	Z20	X21	Y21	Z21	X22	Y22	Z22	X23	Y23	Z23	X24	Y24	Z24	X25	Y25	Z25	X26	Y26	Z26	X27	Y27	Z27	X28	Y28	Z28	X29	Y29	Z29	X30	Y30	Z30	X31	Y31	Z31	X32	Y32	Z32	X33	Y33	Z33	X34	Y34	Z34	X35	Y35	Z35	X36	Y36	Z36	X37	Y37	Z37	X38	Y38	Z38	X39	Y39	Z39	X40	Y40	Z40	X41	Y41	Z41	X42	Y42	Z42	X43	Y43	Z43	X44	Y44	Z44	X45	Y45	Z45	X46	Y46	Z46	X47	Y47	Z47	X48	Y48	Z48	X49	Y49	Z49	X50	Y50	Z50	X51	Y51	Z51	X52	Y52	Z52	X53	Y53	Z53	

456	4.55	1037.409912109375	1017.605834960938	396.6869506835938	935.5594482421875	1022.554504394531	310.0870971679688	988.145751953125	1112.116821289062	350.4172668457031	1131.501220703125	1303.340942382812	175.9191284179688	981.5349731445312	1237.40625	364.3072814941406	1027.832397460938	1511.931518554688	346.3032531738281	1120.6787109375	1413.96923828125	196.4081420898438	1052.476928710938	1382.252685546875	448.5965881347656	932.3082275390625	1461.004028320312	317.8419189453125	922.4192504882812	1488.392333984375	191.2344512939453	850.4822998046875	1363.676147460938	149.3326110839844	840.7911987304688	1146.902709960938	105.4824066162109	840.68798828125	1128.44775390625	204.8661193847656	941.6448364257812	920.4345092773438	20.25931930541992	858.9864501953125	892.7716674804688	18.3863410949707	850.3821411132812	1064.939453125	72.302734375	947.49365234375	752.2162475585938	4.882320880889893	874.0211181640625	834.4368286132812	8.031617164611816	937.3111572265625	846.053466796875	-13.41100120544434	1186.656005859375	1468.861206054688	390.2578430175781	1229.52001953125	1402.413452148438	443.4882202148438	1263.018432617188	1113.2119140625	469.9985961914062	1206.450317382812	1094.681030273438	494.7581176757812	1325.723022460938	901.6307983398438	331.6968383789062	1345.495483398438	877.1600341796875	408.320556640625	1276.408325195312	1058.592529296875	464.8907165527344	1336.139526367188	730.5729370117188	315.9858093261719	1358.507202148438	812.470703125	315.5010986328125	1357.544799804688	804.4312744140625	388.9429321289062	1141.534790039062	1695.842163085938	317.1422729492188	1221.111083984375	1705.919555664062	201.7775726318359	1014.880676269531	1698.288818359375	208.3335418701172	919.5640258789062	946.3684692382812	127.5457077026367	1208.706909179688	943.4755859375	383.0385131835938	1223.150268554688	976.4988403320312	277.9388122558594	1009.830139160156	972.6865234375	101.7004013061523	991.9442749023438	502.6658020019531	129.4172058105469	959.7359008789062	668.822998046875	113.9897308349609	911.0729370117188	42.22283172607422	233.2723846435547	933.0272827148438	260.4130859375	193.2517700195312	1094.199462890625	36.83425521850586	114.6275100708008	1072.068359375	44.23062133789062	193.2254180908203	981.9592895507812	38.50183486938477	134.546630859375	902.7733764648438	47.72061157226562	320.3119812011719	1161.13134765625	502.7073364257812	348.8089904785156	1222.38134765625	788.304931640625	353.2327575683594	1032.533325195312	56.54660034179688	461.4146118164062	1132.79345703125	360.3349609375	357.2123413085938	1133.677734375	36.99618148803711	261.1710510253906	1063.319458007812	46.69524383544922	291.0244750976562	1128.494873046875	40.48717498779297	371.2471008300781	956.6240234375	58.76821517944336	471.80224609375	1107.597290039062	1709.831298828125	113.0133972167969	
457	4.56	1037.569580078125	1017.270935058594	395.4224548339844	935.79931640625	1022.277404785156	308.6956481933594	988.3215942382812	1111.811889648438	349.1144714355469	1131.789428710938	1303.052856445312	174.7944030761719	981.6070556640625	1237.12158203125	362.9510498046875	1027.97705078125	1511.644897460938	345.0719604492188	1120.953491210938	1413.686889648438	195.2548065185547	1052.431762695312	1381.909790039062	447.3516845703125	932.4888305664062	1460.740112304688	316.5056457519531	922.7265625	1488.199096679688	189.9193878173828	850.7685546875	1363.626831054688	147.7065277099609	841.1361694335938	1146.990478515625	103.1374282836914	840.7918701171875	1128.106689453125	202.4320373535156	942.8032836914062	921.3999633789062	16.93684387207031	860.2777709960938	893.4117431640625	14.75790596008301	851.0172119140625	1065.2470703125	69.58665466308594	949.23583984375	753.3004760742188	0.4300742447376251	875.5416259765625	835.254150390625	3.936955690383911	938.7860107421875	847.322265625	-17.34672546386719	1186.712280273438	1468.474365234375	389.2312622070312	1229.460205078125	1402.005249023438	442.5307006835938	1262.736328125	1112.819091796875	469.3617553710938	1206.058471679688	1094.45166015625	493.9197998046875	1325.441284179688	900.4006958007812	332.3384399414062	1344.983642578125	876.3372192382812	409.12353515625	1276.059936523438	1058.199951171875	464.5015869140625	1335.650634765625	729.2223510742188	317.6091003417969	1358.098266601562	811.0589599609375	316.8106384277344	1356.95947265625	803.4679565429688	390.2281494140625	1141.907836914062	1695.518188476562	316.0322875976562	1221.566772460938	1705.581420898438	200.7066802978516	1015.308532714844	1698.07421875	207.1808471679688	919.9863891601562	946.07470703125	126.1612091064453	1208.829833984375	943.1722412109375	381.9760131835938	1223.526977539062	976.2317504882812	276.8796997070312	1010.338012695312	972.348388671875	100.4470748901367	991.58837890625	502.3491821289062	129.7639770507812	959.9848022460938	668.4699096679688	113.6214218139648	911.1424560546875	41.95276641845703	233.4198150634766	932.786865234375	260.0824890136719	193.55712890625	1094.250610351562	36.82049942016602	114.6458206176758	1072.129516601562	44.21612548828125	193.2747650146484	981.9161376953125	38.46651458740234	134.5709838867188	902.732177734375	47.37666320800781	320.49267578125	1161.307006835938	502.5111999511719	348.0916748046875	1222.599243164062	788.0584716796875	352.3247375488281	1032.364013671875	56.48213577270508	461.419921875	1132.852416992188	360.1374816894531	356.8231811523438	1133.578247070312	37.01113510131836	261.2462768554688	1063.274536132812	46.65238952636719	291.0060119628906	1128.452026367188	40.45771789550781	371.2611694335938	956.3790283203125	58.86337280273438	471.8164367675781	1108.090698242188	1709.572998046875	111.9133377075195	
458	4.57	1037.701416015625	1016.941162109375	394.1832580566406	936.037109375	1022.00634765625	307.3596801757812	988.49951171875	1111.498901367188	347.8504943847656	1132.042724609375	1302.766479492188	173.7100524902344	981.7258911132812	1236.770629882812	361.6331481933594	1028.081176757812	1511.345092773438	343.8929138183594	1121.1884765625	1413.407104492188	194.1478424072266	1052.344848632812	1381.542724609375	446.1601867675781	932.6315307617188	1460.460571289062	315.2208862304688	922.98681640625	1487.984008789062	188.6580810546875	851.01953125	1363.548217773438	146.1368865966797	841.464599609375	1147.046142578125	100.8649597167969	840.8759765625	1127.750854492188	200.084716796875	943.9225463867188	922.303466796875	13.73935985565186	861.514892578125	893.9979858398438	11.26429557800293	851.6307373046875	1065.519287109375	66.95708465576172	950.8778076171875	754.3116455078125	-3.835574865341187	877.0039672851562	836.0279541015625	-0.01813157647848129	940.19140625	848.513916015625	-21.12140083312988	1186.732788085938	1468.088500976562	388.25048828125	1229.364379882812	1401.593505859375	441.6096496582031	1262.4189453125	1112.40869140625	468.7127990722656	1205.642211914062	1094.196166992188	493.0411987304688	1325.126098632812	899.1625366210938	332.9588623046875	1344.438354492188	875.5098876953125	409.8968505859375	1275.68896484375	1057.797729492188	464.0741882324219	1335.110473632812	727.869384765625	319.2179870605469	1357.658081054688	809.6412353515625	318.0817565917969	1356.330078125	802.502685546875	391.4883422851562	1142.220947265625	1695.183471679688	314.9483947753906	1221.962646484375	1705.245849609375	199.6674194335938	1015.670471191406	1697.855102539062	206.0656127929688	920.3679809570312	945.7882080078125	124.8036193847656	1208.947875976562	942.8609008789062	380.9184265136719	1223.882568359375	975.9588012695312	275.8177795410156	1010.797668457031	972.007568359375	99.22937774658203	991.1256103515625	502.0233459472656	130.1588897705078	960.1206665039062	668.1089477539062	113.2826919555664	911.2035522460938	41.65734100341797	233.5953674316406	932.5106201171875	259.75048828125	193.8876190185547	1094.3115234375	36.81465530395508	114.670295715332	1072.180908203125	44.19248580932617	193.3219757080078	981.865478515625	38.42840957641602	134.6016693115234	902.719970703125	46.98591995239258	320.7150573730469	1161.475830078125	502.3047180175781	347.3688659667969	1222.815673828125	787.8023681640625	351.3925170898438	1032.231323242188	56.42000198364258	461.4277648925781	1132.90771484375	359.9273071289062	356.4131164550781	1133.507080078125	37.0371208190918	261.3068542480469	1063.230712890625	46.61022567749023	290.9811096191406	1128.410522460938	40.43786239624023	371.266845703125	956.1885986328125	58.92237091064453	471.8471069335938	1108.529418945312	1709.313720703125	110.8442230224609	
459	4.58	1037.817016601562	1016.631469726562	392.9663696289062	936.269775390625	1021.753356933594	306.081298828125	988.6737670898438	1111.177124023438	346.6231994628906	1132.262451171875	1302.485595703125	172.6626892089844	981.88232421875	1236.364624023438	360.3552551269531	1028.149780273438	1511.036376953125	342.7674255371094	1121.386840820312	1413.129516601562	193.0903625488281	1052.2216796875	1381.156982421875	445.0169982910156	932.7393798828125	1460.171020507812	313.9869384765625	923.2047119140625	1487.753540039062	187.4494171142578	851.2391357421875	1363.446411132812	144.6201324462891	841.7894287109375	1147.074829101562	98.66455078125	840.9542236328125	1127.391479492188	197.8254089355469	945.0044555664062	923.13720703125	10.67630195617676	862.694580078125	894.5303344726562	7.916937828063965	852.2305908203125	1065.757446289062	64.41645050048828	952.4669189453125	755.2672729492188	-7.962847709655762	878.4013671875	836.748291015625	-3.813017845153809	941.5393676757812	849.6209106445312	-24.73341178894043	1186.722900390625	1467.70947265625	387.3149719238281	1229.237426757812	1401.1845703125	440.7217712402344	1262.06982421875	1111.990966796875	468.0541381835938	1205.201293945312	1093.925903320312	492.1381225585938	1324.776000976562	897.9310302734375	333.5451354980469	1343.858154296875	874.6871948242188	410.6322937011719	1275.296142578125	1057.389892578125	463.6094665527344	1334.511840820312	726.5281982421875	320.7967834472656	1357.185424804688	808.234375	319.2886962890625	1355.656372070312	801.5479125976562	392.7034912109375	1142.4775390625	1694.847900390625	313.8950500488281	1222.29833984375	1704.917724609375	198.661865234375	1015.970336914062	1697.638061523438	204.9850311279297	920.6948852539062	945.508544921875	123.48388671875	1209.073974609375	942.5536499023438	379.8473205566406	1224.216674804688	975.6842041015625	274.7442932128906	1011.198791503906	971.665283203125	98.04674530029297	990.5526123046875	501.6849670410156	130.5918579101562	960.1268310546875	667.7423706054688	112.9787750244141	911.248291015625	41.34012603759766	233.7864685058594	932.20166015625	259.4203796386719	194.2330017089844	1094.376953125	36.81425094604492	114.6972885131836	1072.224243164062	44.16133117675781	193.3665924072266	981.8067016601562	38.3882942199707	134.6358795166016	902.7410278320312	46.54374313354492	320.9658203125	1161.629638671875	502.0929260253906	346.6594543457031	1223.03662109375	787.5452270507812	350.4273376464844	1032.132080078125	56.36084747314453	461.4382019042969	1132.956176757812	359.7171020507812	355.9868469238281	1133.461059570312	37.06900024414062	261.3517456054688	1063.190307617188	46.57075500488281	290.9521484375	1128.37109375	40.42812347412109	371.2645874023438	956.056640625	58.94315338134766	471.8870544433594	1108.9140625	1709.060302734375	109.8052444458008	
